<?xml version="1.0" encoding="UTF-8"?>
<svg id="Layer_2" data-name="Layer 2" xmlns="http://www.w3.org/2000/svg" xmlns:xlink="http://www.w3.org/1999/xlink" viewBox="0 0 260.27 165.7">
  <defs>
    <style>
      .cls-1 {
        fill: #ffb839;
      }

      .cls-1, .cls-2, .cls-3, .cls-4, .cls-5, .cls-6 {
        stroke-width: 0px;
      }

      .cls-7 {
        clip-path: url(#clippath-2);
      }

      .cls-2 {
        fill: #dd620e;
      }

      .cls-3 {
        fill: none;
      }

      .cls-8 {
        clip-path: url(#clippath-1);
      }

      .cls-4 {
        fill: #5a25a5;
      }

      .cls-9 {
        clip-path: url(#clippath);
      }

      .cls-5 {
        fill: #ae76ff;
      }

      .cls-6 {
        fill: #fc8230;
      }
    </style>
    <clipPath id="clippath">
      <path class="cls-3" d="m47.49,128.83h10.82c3.27,0,4.91.99,4.91,2.97v13.01c0,1.98-1.64,2.97-4.91,2.97h-10.82v-18.96Zm10.5,15.62v-12.29c0-.32-.09-.54-.27-.65-.18-.11-.51-.16-.99-.16h-4.06v13.91h4.06c.48,0,.81-.05.99-.16.18-.11.27-.33.27-.65Zm14.6.69h8.65v2.64h-13.88v-18.96h13.52v2.64h-8.29v5.26h6.98v2.67h-6.98v5.74Zm20.64-.81v-4.06c0-.32-.09-.54-.27-.65-.18-.11-.51-.16-.99-.16h-3.65c-3.09,0-4.64-1-4.64-3v-4.66c0-1.98,1.62-2.97,4.87-2.97h4.96c3.25,0,4.87.99,4.87,2.97v2.64h-5.23v-2.16c0-.32-.09-.54-.27-.65-.18-.11-.51-.16-.99-.16h-1.71c-.51,0-.86.06-1.04.16-.18.11-.27.33-.27.65v3.82c0,.32.09.54.27.65.18.11.52.17,1.04.17h3.56c3.15,0,4.73.98,4.73,2.94v4.96c0,1.98-1.64,2.97-4.91,2.97h-4.87c-3.28,0-4.91-.99-4.91-2.97v-2.61h5.18v2.13c0,.32.09.54.27.65.18.11.53.17,1.04.17h1.71c.48,0,.81-.05.99-.17.18-.11.27-.32.27-.65Zm14.2.81h8.65v2.64h-13.88v-18.96h13.52v2.64h-8.29v5.26h6.98v2.67h-6.98v5.74Zm16.81-4.75v7.39h-5.18v-18.96h10.46c3.27,0,4.91.99,4.91,2.97v5.62c0,1.64-1.1,2.6-3.29,2.88l4.73,7.48h-5.59l-4.33-7.39h-1.71Zm0-8.92v6.37h3.74c.48,0,.81-.05.99-.16.18-.11.27-.33.27-.65v-4.75c0-.32-.09-.54-.27-.65-.18-.11-.51-.16-.99-.16h-3.74Zm27.4-2.64v2.64h-5v16.31h-5.18v-16.31h-4.96v-2.64h15.14Zm18.66,15.5v-4.06c0-.32-.09-.54-.27-.65-.18-.11-.51-.16-.99-.16h-3.65c-3.09,0-4.64-1-4.64-3v-4.66c0-1.98,1.62-2.97,4.87-2.97h4.96c3.25,0,4.87.99,4.87,2.97v2.64h-5.23v-2.16c0-.32-.09-.54-.27-.65-.18-.11-.51-.16-.99-.16h-1.71c-.51,0-.86.06-1.04.16-.18.11-.27.33-.27.65v3.82c0,.32.09.54.27.65.18.11.52.17,1.04.17h3.56c3.15,0,4.73.98,4.73,2.94v4.96c0,1.98-1.64,2.97-4.91,2.97h-4.87c-3.28,0-4.91-.99-4.91-2.97v-2.61h5.18v2.13c0,.32.09.54.27.65.18.11.53.17,1.04.17h1.71c.48,0,.81-.05.99-.17.18-.11.27-.32.27-.65Zm19.06-15.5h5.18v15.98c0,1.98-1.64,2.97-4.91,2.97h-5.5c-3.28,0-4.91-.99-4.91-2.97v-15.98h5.18v15.5c0,.32.09.54.27.65.18.11.51.17.99.17h2.39c.51,0,.86-.05,1.04-.17.18-.11.27-.32.27-.65v-15.5Zm20.46,0h4.73v18.96h-4.87l-6.08-12.56v12.56h-4.78v-18.96h5l5.99,12.38v-12.38Z"/>
    </clipPath>
    <clipPath id="clippath-1">
      <polygon class="cls-3" points="194.01 66.56 185.34 55.32 164.58 76.61 132.65 42 100.42 76.61 79.66 55.32 71.29 66.25 71.29 0 194.01 0 194.01 66.56"/>
    </clipPath>
    <clipPath id="clippath-2">
      <path class="cls-3" d="m176.05,59.5c0,23.24-19.43,42.08-43.39,42.08s-43.39-18.84-43.39-42.08,19.43-42.08,43.39-42.08,43.39,18.84,43.39,42.08Zm8.75,0c0-27.88-23.39-50.56-52.14-50.56s-52.14,22.68-52.14,50.56,23.39,50.56,52.14,50.56,52.14-22.68,52.14-50.56Zm-2.3,0c0,26.65-22.36,48.33-49.84,48.33s-49.84-21.68-49.84-48.33,22.36-48.33,49.84-48.33,49.84,21.68,49.84,48.33Zm11.52,0c0-32.81-27.53-59.5-61.36-59.5s-61.36,26.69-61.36,59.5,27.53,59.5,61.36,59.5,61.36-26.69,61.36-59.5Zm-1.53,0c0,31.99-26.84,58.01-59.83,58.01s-59.83-26.02-59.83-58.01S99.66,1.49,132.65,1.49s59.83,26.02,59.83,58.01Z"/>
    </clipPath>
  </defs>
  <g id="V3">
    <g id="Text_copy_12" data-name="Text copy 12">
      <g id="DESERT_SUN_Outlined_" data-name="DESERT SUN (Outlined)">
        <g class="cls-9">
          <rect class="cls-2" x="40.14" y="126.82" width="181.58" height="20.97"/>
          <rect class="cls-6" x="40.14" y="126.82" width="181.58" height="13.49"/>
        </g>
      </g>
      <g>
        <path class="cls-5" d="m2.89,161.15h-.17v3.93H0v-11.07h4.61c1.66,0,2.28.84,2.28,2.14v2.86c0,1.02-.37,1.74-1.34,2.02l1.83,4.05h-2.92l-1.58-3.93Zm-.17-4.99v2.93h1.07c.26,0,.39-.12.39-.38v-2.17c0-.26-.12-.38-.39-.38h-1.07Z"/>
        <path class="cls-5" d="m14.07,154c1.66,0,2.28.84,2.28,2.14v6.8c0,1.29-.62,2.14-2.28,2.14h-2.3c-1.66,0-2.28-.85-2.28-2.14v-6.8c0-1.29.62-2.14,2.28-2.14h2.3Zm-.43,2.54c0-.26-.12-.38-.39-.38h-.65c-.26,0-.39.12-.39.38v6c0,.26.12.38.39.38h.65c.26,0,.39-.12.39-.38v-6Z"/>
        <path class="cls-5" d="m23.63,154c1.66,0,2.28.84,2.28,2.14v6.8c0,1.29-.62,2.14-2.28,2.14h-2.3c-1.66,0-2.28-.85-2.28-2.14v-6.8c0-1.29.62-2.14,2.28-2.14h2.3Zm-.43,2.54c0-.26-.12-.38-.39-.38h-.65c-.26,0-.39.12-.39.38v6c0,.26.12.38.39.38h.65c.26,0,.39-.12.39-.38v-6Z"/>
        <path class="cls-5" d="m31.38,156.16v2.69h2.83v1.98h-2.83v4.24h-2.72v-11.07h5.98v2.16h-3.26Z"/>
        <path class="cls-5" d="m39.76,154v11.07h-2.72v-11.07h2.72Z"/>
        <path class="cls-5" d="m49.59,154v11.07h-2.33l-2.22-5.81v5.81h-2.49v-11.07h2.33l2.22,5.92v-5.92h2.48Z"/>
        <path class="cls-5" d="m56.36,157.8v-1.43c0-.26-.12-.38-.39-.38h-.56c-.26,0-.39.12-.39.38v6.35c0,.26.12.38.39.38h.56c.26,0,.39-.12.39-.38v-1.85h-.78v-1.91h3.49v3.98c0,1.29-.62,2.14-2.28,2.14h-2.21c-1.66,0-2.28-.85-2.28-2.14v-6.8c0-1.29.62-2.14,2.28-2.14h2.21c1.66,0,2.28.84,2.28,2.14v1.66h-2.72Z"/>
        <path class="cls-5" d="m73.33,165.7l-.54-.62h-4.29c-1.66,0-2.28-.85-2.28-2.14v-1c0-1.19.37-1.64,1.46-2.31l.25-.16-.06-.09c-.79-.91-1.09-1.36-1.09-2.07v-1.17c0-1.29.62-2.14,2.28-2.14h1.82c1.66,0,2.24.84,2.24,2.14v1.17c0,1.36-.57,1.83-1.63,2.54l-.25.15,1.65,1.95v-1.21h2.14v2.19c0,.47-.09.88-.3,1.21l1.3,1.55h-2.7Zm-2.25-2.6l-1.68-1.93-.26.17c-.23.16-.36.31-.36.66v.72c0,.26.12.38.39.38h1.91Zm-1.66-5.66c0,.38.08.53.36.86.53-.33.78-.48.78-.93v-1.05c0-.26-.12-.38-.39-.38h-.36c-.26,0-.39.12-.39.38v1.12Z"/>
        <path class="cls-5" d="m85.18,161.15h-.17v3.93h-2.72v-11.07h4.61c1.66,0,2.28.84,2.28,2.14v2.86c0,1.02-.37,1.74-1.34,2.02l1.83,4.05h-2.92l-1.58-3.93Zm-.17-4.99v2.93h1.07c.26,0,.39-.12.39-.38v-2.17c0-.26-.12-.38-.39-.38h-1.07Z"/>
        <path class="cls-5" d="m97.94,162.92v2.16h-6.12v-11.07h5.98v2.16h-3.26v2.26h2.81v2.16h-2.81v2.35h3.4Z"/>
        <path class="cls-5" d="m103.06,156.16v2.69h2.83v1.98h-2.83v4.24h-2.72v-11.07h5.98v2.16h-3.26Z"/>
        <path class="cls-5" d="m114.54,162.92v2.16h-5.81v-11.07h2.72v8.92h3.09Z"/>
        <path class="cls-5" d="m122.83,162.92v2.16h-6.12v-11.07h5.98v2.16h-3.26v2.26h2.81v2.16h-2.81v2.35h3.4Z"/>
        <path class="cls-5" d="m129.2,158.14v-1.78c0-.26-.12-.38-.39-.38h-.54c-.26,0-.39.12-.39.38v6.35c0,.26.12.38.39.38h.54c.26,0,.39-.12.39-.38v-1.71h2.72v1.93c0,1.29-.62,2.14-2.28,2.14h-2.19c-1.66,0-2.28-.85-2.28-2.14v-6.8c0-1.29.62-2.14,2.28-2.14h2.19c1.66,0,2.28.84,2.28,2.14v2h-2.72Z"/>
        <path class="cls-5" d="m140.48,156.16h-1.93v8.92h-2.72v-8.92h-1.91v-2.16h6.55v2.16Z"/>
        <path class="cls-5" d="m145.45,154v11.07h-2.72v-11.07h2.72Z"/>
        <path class="cls-5" d="m155.79,154l-2.45,11.07h-3.15l-2.45-11.07h2.83l1.2,7.4,1.21-7.4h2.83Z"/>
        <path class="cls-5" d="m164.19,162.92v2.16h-6.12v-11.07h5.98v2.16h-3.26v2.26h2.81v2.16h-2.81v2.35h3.4Z"/>
        <path class="cls-5" d="m175.22,158.14v-1.78c0-.26-.12-.38-.39-.38h-.54c-.26,0-.39.12-.39.38v6.35c0,.26.12.38.39.38h.54c.26,0,.39-.12.39-.38v-1.71h2.72v1.93c0,1.29-.62,2.14-2.28,2.14h-2.19c-1.66,0-2.28-.85-2.28-2.14v-6.8c0-1.29.62-2.14,2.28-2.14h2.19c1.66,0,2.28.84,2.28,2.14v2h-2.72Z"/>
        <path class="cls-5" d="m185.03,154c1.66,0,2.28.84,2.28,2.14v6.8c0,1.29-.62,2.14-2.28,2.14h-2.3c-1.66,0-2.28-.85-2.28-2.14v-6.8c0-1.29.62-2.14,2.28-2.14h2.3Zm-.43,2.54c0-.26-.12-.38-.39-.38h-.65c-.26,0-.39.12-.39.38v6c0,.26.12.38.39.38h.65c.26,0,.39-.12.39-.38v-6Z"/>
        <path class="cls-5" d="m194.83,163.42h-2.39l-.33,1.66h-2.67l2.56-11.07h3.31l2.56,11.07h-2.73l-.31-1.66Zm-.42-2.14l-.76-3.98-.79,3.98h1.55Z"/>
        <path class="cls-5" d="m206.05,156.16h-1.93v8.92h-2.72v-8.92h-1.91v-2.16h6.55v2.16Z"/>
        <path class="cls-5" d="m211.02,154v11.07h-2.72v-11.07h2.72Z"/>
        <path class="cls-5" d="m220.85,154v11.07h-2.33l-2.22-5.81v5.81h-2.49v-11.07h2.33l2.22,5.92v-5.92h2.48Z"/>
        <path class="cls-5" d="m227.62,157.8v-1.43c0-.26-.12-.38-.39-.38h-.56c-.26,0-.39.12-.39.38v6.35c0,.26.12.38.39.38h.56c.26,0,.39-.12.39-.38v-1.85h-.78v-1.91h3.49v3.98c0,1.29-.62,2.14-2.28,2.14h-2.21c-1.66,0-2.28-.85-2.28-2.14v-6.8c0-1.29.62-2.14,2.28-2.14h2.21c1.66,0,2.28.84,2.28,2.14v1.66h-2.72Z"/>
        <path class="cls-5" d="m243.44,162.92v2.16h-5.81v-11.07h2.72v8.92h3.09Z"/>
        <path class="cls-5" d="m251.42,162.92v2.16h-5.81v-11.07h2.72v8.92h3.09Z"/>
        <path class="cls-5" d="m257.55,158.14v-1.78c0-.26-.12-.38-.39-.38h-.54c-.26,0-.39.12-.39.38v6.35c0,.26.12.38.39.38h.54c.26,0,.39-.12.39-.38v-1.71h2.72v1.93c0,1.29-.62,2.14-2.28,2.14h-2.19c-1.66,0-2.28-.85-2.28-2.14v-6.8c0-1.29.62-2.14,2.28-2.14h2.19c1.66,0,2.28.84,2.28,2.14v2h-2.72Z"/>
      </g>
    </g>
    <g id="Sun_copy_7" data-name="Sun copy 7">
      <g class="cls-8">
        <g class="cls-7">
          <rect class="cls-1" x="63.66" width="135.71" height="101.83"/>
          <rect class="cls-6" x="63.66" y="31.99" width="135.71" height="69.84"/>
          <rect class="cls-2" x="63.66" y="51.89" width="135.71" height="49.94"/>
        </g>
      </g>
    </g>
    <g id="Cactuses">
      <path class="cls-5" d="m46.2,94.67v4l-1.2,1.19-3.33,1.41v20.3h-6.22v-15.38l-3.42-1.06-1.63-1.61v-5.42l1.5-.62,1.5.62v3.97l2.05.72v-4.25l-1.85-1.37-.76-.75v-2.52l.7-.29.7.29v1.49l1.22.85v-7.3l3.11-2.37,3.11,2.37v9.22l2.33-1.11v-2.37l1.1-.46,1.1.46Zm172.9,0v4s1.2,1.19,1.2,1.19l3.33,1.41v20.3s6.22,0,6.22,0v-15.38s3.42-1.06,3.42-1.06l1.63-1.61v-5.42s-1.5-.62-1.5-.62l-1.5.62v3.97s-2.05.72-2.05.72v-4.25s1.85-1.37,1.85-1.37l.76-.75v-2.52s-.7-.29-.7-.29l-.7.29v1.49s-1.22.85-1.22.85v-7.3s-3.11-2.37-3.11-2.37l-3.11,2.37v9.22s-2.33-1.11-2.33-1.11v-2.37s-1.1-.46-1.1-.46l-1.1.46Z"/>
    </g>
    <g id="Mountains_V2_copy_2" data-name="Mountains V2 copy 2">
      <polygon class="cls-4" points="185.34 61.19 164.58 82.48 132.65 47.88 100.42 82.48 79.66 61.19 33.46 121.56 132.65 121.56 231.84 121.56 185.34 61.19"/>
      <g id="Layer_5_copy_4" data-name="Layer 5 copy 4">
        <polygon class="cls-5" points="79.45 66.15 83.06 74.73 74.44 88 84.93 92.64 70.39 119.12 38.3 119.12 79.45 66.15"/>
        <polygon class="cls-5" points="132.92 53.01 140.69 66.8 134.7 80.18 119.88 86.94 109.07 104.26 148.1 92.21 172.81 119.12 73.12 119.12 132.92 53.01"/>
        <polygon class="cls-5" points="186.44 66.27 227 119.12 176.5 119.12 183.72 100.39 195.29 94.04 186.44 66.27"/>
      </g>
    </g>
  </g>
</svg>