<?xml version="1.0" encoding="UTF-8"?>
<svg id="Layer_2" data-name="Layer 2" xmlns="http://www.w3.org/2000/svg" xmlns:xlink="http://www.w3.org/1999/xlink" viewBox="0 0 968.13 149.54">
  <defs>
    <style>
      .cls-1 {
        fill: #ffb839;
      }

      .cls-1, .cls-2, .cls-3, .cls-4, .cls-5, .cls-6 {
        stroke-width: 0px;
      }

      .cls-7 {
        clip-path: url(#clippath-2);
      }

      .cls-2 {
        fill: #dd620e;
      }

      .cls-3 {
        fill: none;
      }

      .cls-8 {
        clip-path: url(#clippath-1);
      }

      .cls-4 {
        fill: #5a25a5;
      }

      .cls-9 {
        clip-path: url(#clippath);
      }

      .cls-5 {
        fill: #ae76ff;
      }

      .cls-6 {
        fill: #fc8230;
      }
    </style>
    <clipPath id="clippath">
      <polygon class="cls-3" points="199.16 81.02 188.61 67.34 163.34 93.25 124.47 51.13 85.24 93.25 59.97 67.34 49.78 80.65 49.78 0 199.16 0 199.16 81.02"/>
    </clipPath>
    <clipPath id="clippath-1">
      <path class="cls-3" d="m177.29,72.42c0,28.29-23.65,51.22-52.82,51.22s-52.82-22.93-52.82-51.22,23.65-51.22,52.82-51.22,52.82,22.93,52.82,51.22Zm10.65,0c0-33.93-28.47-61.54-63.47-61.54s-63.47,27.61-63.47,61.54,28.47,61.54,63.47,61.54,63.47-27.61,63.47-61.54Zm-2.8,0c0,32.44-27.22,58.83-60.67,58.83s-60.67-26.39-60.67-58.83S91.02,13.59,124.47,13.59s60.67,26.39,60.67,58.83Zm14.02,0C199.16,32.49,165.66,0,124.47,0S49.78,32.49,49.78,72.42s33.51,72.42,74.69,72.42,74.69-32.49,74.69-72.42Zm-1.87,0c0,38.94-32.67,70.61-72.83,70.61s-72.83-31.68-72.83-70.61S84.32,1.81,124.47,1.81s72.83,31.68,72.83,70.61Z"/>
    </clipPath>
    <clipPath id="clippath-2">
      <path class="cls-3" d="m266.69,43.5h34.95c10.58,0,15.87,3.2,15.87,9.61v42.04c0,6.41-5.29,9.61-15.87,9.61h-34.95v-61.26Zm33.93,50.48v-39.71c0-1.03-.29-1.73-.87-2.09-.58-.36-1.65-.53-3.2-.53h-13.11v44.95h13.11c1.55,0,2.62-.18,3.2-.53.58-.36.87-1.05.87-2.09Zm47.18,2.24h27.96v8.54h-44.86v-61.26h43.69v8.54h-26.79v16.99h22.57v8.64h-22.57v18.54Zm66.7-2.62v-13.11c0-1.03-.29-1.73-.88-2.09-.58-.36-1.65-.53-3.2-.53h-11.8c-10,0-15-3.24-15-9.71v-15.05c0-6.41,5.24-9.61,15.73-9.61h16.02c10.49,0,15.73,3.2,15.73,9.61v8.54h-16.89v-6.99c0-1.03-.29-1.73-.88-2.09-.58-.35-1.65-.53-3.2-.53h-5.53c-1.65,0-2.77.18-3.35.53-.58.36-.88,1.06-.88,2.09v12.33c0,1.03.29,1.73.88,2.09.58.36,1.7.54,3.35.54h11.5c10.19,0,15.29,3.17,15.29,9.51v16.02c0,6.41-5.29,9.61-15.87,9.61h-15.73c-10.58,0-15.87-3.2-15.87-9.61v-8.45h16.75v6.89c0,1.04.29,1.73.87,2.09.58.36,1.7.54,3.35.54h5.53c1.55,0,2.62-.18,3.2-.54.58-.35.88-1.05.88-2.09Zm45.87,2.62h27.96v8.54h-44.86v-61.26h43.69v8.54h-26.79v16.99h22.57v8.64h-22.57v18.54Zm54.32-15.34v23.88h-16.75v-61.26h33.79c10.58,0,15.87,3.2,15.87,9.61v18.15c0,5.31-3.54,8.41-10.63,9.32l15.29,24.18h-18.06l-13.98-23.88h-5.54Zm0-28.83v20.58h12.09c1.55,0,2.62-.18,3.2-.53.58-.35.87-1.05.87-2.09v-15.34c0-1.03-.29-1.73-.87-2.09-.58-.35-1.65-.53-3.2-.53h-12.09Zm88.54-8.54v8.54h-16.17v52.72h-16.75v-52.72h-16.02v-8.54h48.93Zm60.29,50.09v-13.11c0-1.03-.29-1.73-.88-2.09-.58-.36-1.65-.53-3.2-.53h-11.8c-10,0-15-3.24-15-9.71v-15.05c0-6.41,5.24-9.61,15.73-9.61h16.02c10.49,0,15.73,3.2,15.73,9.61v8.54h-16.89v-6.99c0-1.03-.29-1.73-.88-2.09-.58-.35-1.65-.53-3.2-.53h-5.53c-1.65,0-2.77.18-3.35.53-.58.36-.88,1.06-.88,2.09v12.33c0,1.03.29,1.73.88,2.09.58.36,1.7.54,3.35.54h11.5c10.19,0,15.29,3.17,15.29,9.51v16.02c0,6.41-5.29,9.61-15.87,9.61h-15.73c-10.58,0-15.87-3.2-15.87-9.61v-8.45h16.75v6.89c0,1.04.29,1.73.87,2.09.58.36,1.7.54,3.35.54h5.53c1.55,0,2.62-.18,3.2-.54.58-.35.88-1.05.88-2.09Zm61.6-50.09h16.75v51.65c0,6.41-5.29,9.61-15.87,9.61h-17.77c-10.58,0-15.87-3.2-15.87-9.61v-51.65h16.75v50.09c0,1.04.29,1.73.88,2.09.58.36,1.65.54,3.2.54h7.72c1.65,0,2.76-.18,3.35-.54.58-.35.87-1.05.87-2.09v-50.09Zm66.11,0h15.29v61.26h-15.73l-19.66-40.58v40.58h-15.44v-61.26h16.17l19.37,40v-40Z"/>
    </clipPath>
  </defs>
  <g id="V3_Horizontal" data-name="V3 Horizontal">
    <g id="Sun_copy_8" data-name="Sun copy 8">
      <g class="cls-9">
        <g class="cls-8">
          <rect class="cls-1" x="40.48" width="165.2" height="123.96"/>
          <rect class="cls-6" x="40.48" y="38.94" width="165.2" height="85.02"/>
          <rect class="cls-2" x="40.48" y="63.17" width="165.2" height="60.79"/>
        </g>
      </g>
    </g>
    <g id="Cactuses_copy_2" data-name="Cactuses copy 2">
      <path class="cls-5" d="m19.24,115.23v4.86l-1.46,1.45-4.06,1.72v24.71h-7.57v-18.73l-4.16-1.29-1.99-1.96v-6.6l1.82-.76,1.82.76v4.83l2.5.88v-5.17l-2.26-1.67-.92-.91v-3.06l.85-.35.85.35v1.81l1.48,1.04v-8.89l3.79-2.89,3.79,2.89v11.22l2.83-1.36v-2.88l1.34-.56,1.34.56Zm210.46,0v4.86s1.46,1.45,1.46,1.45l4.06,1.72v24.71s7.57,0,7.57,0v-18.73s4.16-1.29,4.16-1.29l1.99-1.96v-6.6s-1.82-.76-1.82-.76l-1.82.76v4.83s-2.5.88-2.5.88v-5.17s2.26-1.67,2.26-1.67l.92-.91v-3.06s-.85-.35-.85-.35l-.85.35v1.81s-1.48,1.04-1.48,1.04v-8.89s-3.79-2.89-3.79-2.89l-3.79,2.89v11.22s-2.83-1.36-2.83-1.36v-2.88s-1.34-.56-1.34-.56l-1.34.56Z"/>
    </g>
    <g id="Mountains_V2_copy_3" data-name="Mountains V2 copy 3">
      <polygon class="cls-4" points="188.61 74.49 163.34 100.4 124.47 58.28 85.24 100.4 59.97 74.49 3.73 147.97 124.47 147.97 245.21 147.97 188.61 74.49"/>
      <g id="Layer_5_copy_9" data-name="Layer 5 copy 9">
        <polygon class="cls-5" points="59.71 80.53 64.1 90.97 53.61 107.12 66.38 112.76 48.68 145 9.62 145 59.71 80.53"/>
        <polygon class="cls-5" points="124.8 64.52 134.25 81.32 126.96 97.6 108.92 105.83 95.77 126.91 143.27 112.24 173.36 145 52.01 145 124.8 64.52"/>
        <polygon class="cls-5" points="189.95 80.67 239.32 145 177.84 145 186.63 122.2 200.72 114.48 189.95 80.67"/>
      </g>
    </g>
    <g id="Text_copy_13" data-name="Text copy 13">
      <g id="DESERT_SUN_Outlined_" data-name="DESERT SUN (Outlined)">
        <g class="cls-7">
          <rect class="cls-2" x="242.94" y="37" width="586.75" height="67.76"/>
          <rect class="cls-6" x="242.94" y="37" width="586.75" height="43.58"/>
        </g>
      </g>
      <g>
        <path class="cls-5" d="m274.48,137.26h-.46v10.6h-7.33v-29.84h12.43c4.48,0,6.15,2.28,6.15,5.76v7.72c0,2.74-1.01,4.7-3.6,5.44l4.94,10.92h-7.87l-4.27-10.6Zm-.46-13.44v7.9h2.89c.71,0,1.05-.33,1.05-1.02v-5.85c0-.7-.34-1.02-1.05-1.02h-2.89Z"/>
        <path class="cls-5" d="m304.61,118.02c4.48,0,6.15,2.28,6.15,5.76v18.32c0,3.49-1.67,5.76-6.15,5.76h-6.19c-4.48,0-6.15-2.28-6.15-5.76v-18.32c0-3.49,1.68-5.76,6.15-5.76h6.19Zm-1.17,6.83c0-.7-.34-1.02-1.05-1.02h-1.76c-.71,0-1.05.33-1.05,1.02v16.18c0,.7.34,1.02,1.05,1.02h1.76c.71,0,1.05-.32,1.05-1.02v-16.18Z"/>
        <path class="cls-5" d="m330.39,118.02c4.48,0,6.15,2.28,6.15,5.76v18.32c0,3.49-1.67,5.76-6.15,5.76h-6.19c-4.48,0-6.15-2.28-6.15-5.76v-18.32c0-3.49,1.68-5.76,6.15-5.76h6.19Zm-1.17,6.83c0-.7-.34-1.02-1.05-1.02h-1.76c-.71,0-1.05.33-1.05,1.02v16.18c0,.7.34,1.02,1.05,1.02h1.76c.71,0,1.05-.32,1.05-1.02v-16.18Z"/>
        <path class="cls-5" d="m351.26,123.83v7.25h7.62v5.35h-7.62v11.44h-7.33v-29.84h16.12v5.81h-8.79Z"/>
        <path class="cls-5" d="m373.86,118.02v29.84h-7.33v-29.84h7.33Z"/>
        <path class="cls-5" d="m400.35,118.02v29.84h-6.28l-5.98-15.67v15.67h-6.7v-29.84h6.28l5.99,15.95v-15.95h6.7Z"/>
        <path class="cls-5" d="m418.59,128.25v-3.86c0-.7-.34-1.02-1.05-1.02h-1.51c-.71,0-1.05.32-1.05,1.02v17.11c0,.7.34,1.02,1.05,1.02h1.51c.71,0,1.05-.33,1.05-1.02v-4.97h-2.09v-5.16h9.42v10.74c0,3.49-1.67,5.76-6.15,5.76h-5.94c-4.48,0-6.15-2.28-6.15-5.76v-18.32c0-3.49,1.67-5.76,6.15-5.76h5.94c4.48,0,6.15,2.28,6.15,5.76v4.46h-7.33Z"/>
        <path class="cls-5" d="m464.33,149.54l-1.46-1.67h-11.55c-4.48,0-6.15-2.28-6.15-5.76v-2.7c0-3.21,1-4.42,3.94-6.23l.67-.42-.17-.23c-2.13-2.46-2.93-3.67-2.93-5.58v-3.16c0-3.49,1.67-5.76,6.15-5.76h4.9c4.48,0,6.03,2.28,6.03,5.76v3.16c0,3.67-1.55,4.93-4.39,6.83l-.67.42,4.44,5.25v-3.25h5.78v5.9c0,1.25-.25,2.37-.8,3.25l3.52,4.18h-7.28Zm-6.07-7.02l-4.52-5.21-.71.46c-.63.42-.96.84-.96,1.77v1.95c0,.7.34,1.02,1.05,1.02h5.15Zm-4.48-15.25c0,1.02.21,1.44.96,2.32,1.42-.88,2.09-1.3,2.09-2.51v-2.84c0-.7-.34-1.02-1.05-1.02h-.96c-.71,0-1.05.33-1.05,1.02v3.02Z"/>
        <path class="cls-5" d="m496.25,137.26h-.46v10.6h-7.33v-29.84h12.43c4.48,0,6.15,2.28,6.15,5.76v7.72c0,2.74-1.01,4.7-3.6,5.44l4.94,10.92h-7.87l-4.27-10.6Zm-.46-13.44v7.9h2.89c.71,0,1.05-.33,1.05-1.02v-5.85c0-.7-.34-1.02-1.05-1.02h-2.89Z"/>
        <path class="cls-5" d="m530.65,142.05v5.81h-16.49v-29.84h16.12v5.81h-8.79v6.09h7.58v5.81h-7.58v6.32h9.17Z"/>
        <path class="cls-5" d="m544.46,123.83v7.25h7.62v5.35h-7.62v11.44h-7.33v-29.84h16.12v5.81h-8.79Z"/>
        <path class="cls-5" d="m575.38,142.05v5.81h-15.66v-29.84h7.33v24.03h8.33Z"/>
        <path class="cls-5" d="m597.73,142.05v5.81h-16.49v-29.84h16.12v5.81h-8.79v6.09h7.58v5.81h-7.58v6.32h9.17Z"/>
        <path class="cls-5" d="m614.88,129.18v-4.79c0-.7-.34-1.02-1.05-1.02h-1.47c-.71,0-1.05.32-1.05,1.02v17.11c0,.7.34,1.02,1.05,1.02h1.47c.71,0,1.05-.33,1.05-1.02v-4.6h7.33v5.21c0,3.49-1.67,5.76-6.15,5.76h-5.9c-4.48,0-6.15-2.28-6.15-5.76v-18.32c0-3.49,1.67-5.76,6.15-5.76h5.9c4.48,0,6.15,2.28,6.15,5.76v5.39h-7.33Z"/>
        <path class="cls-5" d="m645.3,123.83h-5.19v24.03h-7.33v-24.03h-5.15v-5.81h17.66v5.81Z"/>
        <path class="cls-5" d="m658.69,118.02v29.84h-7.33v-29.84h7.33Z"/>
        <path class="cls-5" d="m686.56,118.02l-6.61,29.84h-8.5l-6.61-29.84h7.62l3.22,19.94,3.26-19.94h7.62Z"/>
        <path class="cls-5" d="m709.2,142.05v5.81h-16.49v-29.84h16.12v5.81h-8.79v6.09h7.58v5.81h-7.58v6.32h9.17Z"/>
        <path class="cls-5" d="m738.91,129.18v-4.79c0-.7-.34-1.02-1.05-1.02h-1.47c-.71,0-1.05.32-1.05,1.02v17.11c0,.7.34,1.02,1.05,1.02h1.47c.71,0,1.05-.33,1.05-1.02v-4.6h7.33v5.21c0,3.49-1.67,5.76-6.15,5.76h-5.9c-4.48,0-6.15-2.28-6.15-5.76v-18.32c0-3.49,1.67-5.76,6.15-5.76h5.9c4.48,0,6.15,2.28,6.15,5.76v5.39h-7.33Z"/>
        <path class="cls-5" d="m765.35,118.02c4.48,0,6.15,2.28,6.15,5.76v18.32c0,3.49-1.67,5.76-6.15,5.76h-6.19c-4.48,0-6.15-2.28-6.15-5.76v-18.32c0-3.49,1.68-5.76,6.15-5.76h6.19Zm-1.17,6.83c0-.7-.34-1.02-1.05-1.02h-1.76c-.71,0-1.05.33-1.05,1.02v16.18c0,.7.34,1.02,1.05,1.02h1.76c.71,0,1.05-.32,1.05-1.02v-16.18Z"/>
        <path class="cls-5" d="m791.76,143.4h-6.45l-.88,4.46h-7.2l6.91-29.84h8.92l6.91,29.84h-7.37l-.84-4.46Zm-1.13-5.76l-2.05-10.74-2.13,10.74h4.19Z"/>
        <path class="cls-5" d="m822.01,123.83h-5.19v24.03h-7.33v-24.03h-5.15v-5.81h17.66v5.81Z"/>
        <path class="cls-5" d="m835.4,118.02v29.84h-7.33v-29.84h7.33Z"/>
        <path class="cls-5" d="m861.89,118.02v29.84h-6.28l-5.98-15.67v15.67h-6.7v-29.84h6.28l5.99,15.95v-15.95h6.7Z"/>
        <path class="cls-5" d="m880.13,128.25v-3.86c0-.7-.33-1.02-1.05-1.02h-1.51c-.71,0-1.05.32-1.05,1.02v17.11c0,.7.34,1.02,1.05,1.02h1.51c.71,0,1.05-.33,1.05-1.02v-4.97h-2.09v-5.16h9.42v10.74c0,3.49-1.67,5.76-6.15,5.76h-5.94c-4.48,0-6.15-2.28-6.15-5.76v-18.32c0-3.49,1.67-5.76,6.15-5.76h5.94c4.48,0,6.15,2.28,6.15,5.76v4.46h-7.33Z"/>
        <path class="cls-5" d="m922.77,142.05v5.81h-15.66v-29.84h7.33v24.03h8.33Z"/>
        <path class="cls-5" d="m944.28,142.05v5.81h-15.66v-29.84h7.33v24.03h8.33Z"/>
        <path class="cls-5" d="m960.81,129.18v-4.79c0-.7-.34-1.02-1.05-1.02h-1.47c-.71,0-1.05.32-1.05,1.02v17.11c0,.7.34,1.02,1.05,1.02h1.47c.71,0,1.05-.33,1.05-1.02v-4.6h7.33v5.21c0,3.49-1.67,5.76-6.15,5.76h-5.9c-4.48,0-6.15-2.28-6.15-5.76v-18.32c0-3.49,1.67-5.76,6.15-5.76h5.9c4.48,0,6.15,2.28,6.15,5.76v5.39h-7.33Z"/>
      </g>
    </g>
  </g>
</svg>